<mxfile host="65bd71144e">
    <diagram id="9JRDFGQgqZQXxWSo7eyY" name="第 1 页">
        <mxGraphModel dx="1927" dy="638" grid="1" gridSize="10" guides="1" tooltips="1" connect="1" arrows="1" fold="1" page="1" pageScale="1" pageWidth="827" pageHeight="1169" math="0" shadow="0">
            <root>
                <mxCell id="0"/>
                <mxCell id="1" parent="0"/>
                <mxCell id="2" value="item" style="rounded=0;whiteSpace=wrap;html=1;" vertex="1" parent="1">
                    <mxGeometry x="150" y="330" width="120" height="60" as="geometry"/>
                </mxCell>
                <mxCell id="3" value="item name" style="ellipse;whiteSpace=wrap;html=1;fontStyle=4" vertex="1" parent="1">
                    <mxGeometry x="10" y="50" width="120" height="80" as="geometry"/>
                </mxCell>
                <mxCell id="4" value="" style="endArrow=none;html=1;entryX=1;entryY=1;entryDx=0;entryDy=0;exitX=0.5;exitY=0;exitDx=0;exitDy=0;" edge="1" parent="1" source="2" target="3">
                    <mxGeometry width="50" height="50" relative="1" as="geometry">
                        <mxPoint x="140" y="310" as="sourcePoint"/>
                        <mxPoint x="190" y="260" as="targetPoint"/>
                    </mxGeometry>
                </mxCell>
                <mxCell id="5" value="item type" style="ellipse;whiteSpace=wrap;html=1;" vertex="1" parent="1">
                    <mxGeometry x="170" y="20" width="120" height="80" as="geometry"/>
                </mxCell>
                <mxCell id="6" value="" style="endArrow=none;html=1;exitX=0.5;exitY=1;exitDx=0;exitDy=0;entryX=0.5;entryY=0;entryDx=0;entryDy=0;" edge="1" parent="1" source="5" target="2">
                    <mxGeometry width="50" height="50" relative="1" as="geometry">
                        <mxPoint x="120" y="340" as="sourcePoint"/>
                        <mxPoint x="160" y="260" as="targetPoint"/>
                    </mxGeometry>
                </mxCell>
                <mxCell id="7" value="item price" style="ellipse;whiteSpace=wrap;html=1;" vertex="1" parent="1">
                    <mxGeometry x="330" y="20" width="120" height="80" as="geometry"/>
                </mxCell>
                <mxCell id="9" value="" style="endArrow=none;html=1;exitX=0.5;exitY=0;exitDx=0;exitDy=0;entryX=0.5;entryY=1;entryDx=0;entryDy=0;" edge="1" parent="1" source="2" target="7">
                    <mxGeometry width="50" height="50" relative="1" as="geometry">
                        <mxPoint x="160" y="330" as="sourcePoint"/>
                        <mxPoint x="170" y="290" as="targetPoint"/>
                    </mxGeometry>
                </mxCell>
                <mxCell id="72" style="edgeStyle=none;html=1;exitX=0;exitY=0.5;exitDx=0;exitDy=0;" edge="1" parent="1" source="12">
                    <mxGeometry relative="1" as="geometry">
                        <mxPoint x="170" y="700" as="targetPoint"/>
                    </mxGeometry>
                </mxCell>
                <mxCell id="12" value="courier" style="rounded=0;whiteSpace=wrap;html=1;" vertex="1" parent="1">
                    <mxGeometry x="150" y="650" width="120" height="60" as="geometry"/>
                </mxCell>
                <mxCell id="15" value="company" style="rounded=0;whiteSpace=wrap;html=1;" vertex="1" parent="1">
                    <mxGeometry x="560" y="650" width="120" height="60" as="geometry"/>
                </mxCell>
                <mxCell id="17" value="ship" style="rounded=0;whiteSpace=wrap;html=1;" vertex="1" parent="1">
                    <mxGeometry x="560" y="920" width="120" height="60" as="geometry"/>
                </mxCell>
                <mxCell id="21" value="containers" style="rounded=0;whiteSpace=wrap;html=1;" vertex="1" parent="1">
                    <mxGeometry x="540" y="330" width="120" height="60" as="geometry"/>
                </mxCell>
                <mxCell id="22" value="&#10;&#10;Retrieval Start Time&#10;&#10;" style="ellipse;whiteSpace=wrap;html=1;" vertex="1" parent="1">
                    <mxGeometry x="450" y="100" width="120" height="80" as="geometry"/>
                </mxCell>
                <mxCell id="23" value="name" style="ellipse;whiteSpace=wrap;html=1;" vertex="1" parent="1">
                    <mxGeometry x="-150" y="780" width="120" height="80" as="geometry"/>
                </mxCell>
                <mxCell id="24" value="gender" style="ellipse;whiteSpace=wrap;html=1;" vertex="1" parent="1">
                    <mxGeometry x="10" y="870" width="120" height="80" as="geometry"/>
                </mxCell>
                <mxCell id="25" value="age" style="ellipse;whiteSpace=wrap;html=1;" vertex="1" parent="1">
                    <mxGeometry x="170" y="880" width="120" height="80" as="geometry"/>
                </mxCell>
                <mxCell id="26" value="phone number" style="ellipse;whiteSpace=wrap;html=1;fontStyle=4" vertex="1" parent="1">
                    <mxGeometry x="350" y="850" width="120" height="80" as="geometry"/>
                </mxCell>
                <mxCell id="27" value="" style="endArrow=none;html=1;entryX=0.5;entryY=0;entryDx=0;entryDy=0;exitX=0.5;exitY=1;exitDx=0;exitDy=0;" edge="1" parent="1" source="12" target="26">
                    <mxGeometry width="50" height="50" relative="1" as="geometry">
                        <mxPoint x="90" y="650" as="sourcePoint"/>
                        <mxPoint x="70" y="510" as="targetPoint"/>
                    </mxGeometry>
                </mxCell>
                <mxCell id="28" value="" style="endArrow=none;html=1;entryX=0.5;entryY=1;entryDx=0;entryDy=0;exitX=1;exitY=0.5;exitDx=0;exitDy=0;" edge="1" parent="1" source="23" target="12">
                    <mxGeometry width="50" height="50" relative="1" as="geometry">
                        <mxPoint x="-110" y="800" as="sourcePoint"/>
                        <mxPoint x="100" y="550" as="targetPoint"/>
                    </mxGeometry>
                </mxCell>
                <mxCell id="29" value="" style="endArrow=none;html=1;exitX=0.5;exitY=0;exitDx=0;exitDy=0;entryX=0.5;entryY=1;entryDx=0;entryDy=0;" edge="1" parent="1" source="24" target="12">
                    <mxGeometry width="50" height="50" relative="1" as="geometry">
                        <mxPoint x="80" y="610" as="sourcePoint"/>
                        <mxPoint x="130" y="560" as="targetPoint"/>
                    </mxGeometry>
                </mxCell>
                <mxCell id="30" value="" style="endArrow=none;html=1;exitX=0.5;exitY=0;exitDx=0;exitDy=0;entryX=0.5;entryY=1;entryDx=0;entryDy=0;" edge="1" parent="1" source="25" target="12">
                    <mxGeometry width="50" height="50" relative="1" as="geometry">
                        <mxPoint x="80" y="810" as="sourcePoint"/>
                        <mxPoint x="130" y="760" as="targetPoint"/>
                    </mxGeometry>
                </mxCell>
                <mxCell id="37" value="Delivery Finished Time" style="ellipse;whiteSpace=wrap;html=1;" vertex="1" parent="1">
                    <mxGeometry x="540" y="20" width="120" height="80" as="geometry"/>
                </mxCell>
                <mxCell id="42" value="Item Import Time" style="ellipse;whiteSpace=wrap;html=1;" vertex="1" parent="1">
                    <mxGeometry x="600" y="155" width="120" height="80" as="geometry"/>
                </mxCell>
                <mxCell id="43" value="Item Import Tax" style="ellipse;whiteSpace=wrap;html=1;" vertex="1" parent="1">
                    <mxGeometry x="640" y="75" width="120" height="80" as="geometry"/>
                </mxCell>
                <mxCell id="46" value="Item Export Time" style="ellipse;whiteSpace=wrap;html=1;" vertex="1" parent="1">
                    <mxGeometry x="-140" y="65" width="120" height="80" as="geometry"/>
                </mxCell>
                <mxCell id="47" value="Item Export Tax" style="ellipse;whiteSpace=wrap;html=1;" vertex="1" parent="1">
                    <mxGeometry x="-120" y="140" width="120" height="80" as="geometry"/>
                </mxCell>
                <mxCell id="49" value="Container Code" style="ellipse;whiteSpace=wrap;html=1;fontStyle=4" vertex="1" parent="1">
                    <mxGeometry x="770" y="230" width="120" height="80" as="geometry"/>
                </mxCell>
                <mxCell id="50" value="" style="endArrow=none;html=1;entryX=0;entryY=0.5;entryDx=0;entryDy=0;exitX=1;exitY=0.5;exitDx=0;exitDy=0;" edge="1" parent="1" source="21" target="49">
                    <mxGeometry width="50" height="50" relative="1" as="geometry">
                        <mxPoint x="370" y="255" as="sourcePoint"/>
                        <mxPoint x="420" y="205" as="targetPoint"/>
                    </mxGeometry>
                </mxCell>
                <mxCell id="51" value="Container Type" style="ellipse;whiteSpace=wrap;html=1;" vertex="1" parent="1">
                    <mxGeometry x="770" y="410" width="120" height="80" as="geometry"/>
                </mxCell>
                <mxCell id="52" value="" style="endArrow=none;html=1;entryX=1;entryY=0.5;entryDx=0;entryDy=0;exitX=0;exitY=0.5;exitDx=0;exitDy=0;" edge="1" parent="1" source="51" target="21">
                    <mxGeometry width="50" height="50" relative="1" as="geometry">
                        <mxPoint x="370" y="255" as="sourcePoint"/>
                        <mxPoint x="420" y="205" as="targetPoint"/>
                    </mxGeometry>
                </mxCell>
                <mxCell id="54" value="Ship Name" style="ellipse;whiteSpace=wrap;html=1;fontStyle=4" vertex="1" parent="1">
                    <mxGeometry x="560" y="1065" width="120" height="80" as="geometry"/>
                </mxCell>
                <mxCell id="55" value="Company Name" style="ellipse;whiteSpace=wrap;html=1;fontStyle=4" vertex="1" parent="1">
                    <mxGeometry x="750" y="640" width="120" height="80" as="geometry"/>
                </mxCell>
                <mxCell id="56" value="Log Time" style="ellipse;whiteSpace=wrap;html=1;" vertex="1" parent="1">
                    <mxGeometry x="-180" y="230" width="120" height="80" as="geometry"/>
                </mxCell>
                <mxCell id="57" value="" style="endArrow=none;html=1;exitX=0.5;exitY=0;exitDx=0;exitDy=0;entryX=0.5;entryY=1;entryDx=0;entryDy=0;" edge="1" parent="1" source="54" target="17">
                    <mxGeometry width="50" height="50" relative="1" as="geometry">
                        <mxPoint x="300" y="855" as="sourcePoint"/>
                        <mxPoint x="350" y="805" as="targetPoint"/>
                    </mxGeometry>
                </mxCell>
                <mxCell id="59" value="serve" style="rhombus;whiteSpace=wrap;html=1;" vertex="1" parent="1">
                    <mxGeometry x="373.5" y="640" width="80" height="80" as="geometry"/>
                </mxCell>
                <mxCell id="60" value="n" style="endArrow=none;html=1;exitX=1;exitY=0.5;exitDx=0;exitDy=0;entryX=0;entryY=0.5;entryDx=0;entryDy=0;" edge="1" parent="1" source="12" target="59">
                    <mxGeometry width="50" height="50" relative="1" as="geometry">
                        <mxPoint x="200" y="660" as="sourcePoint"/>
                        <mxPoint x="250" y="610" as="targetPoint"/>
                    </mxGeometry>
                </mxCell>
                <mxCell id="61" value="1" style="endArrow=none;html=1;exitX=1;exitY=0.5;exitDx=0;exitDy=0;entryX=0;entryY=0.5;entryDx=0;entryDy=0;" edge="1" parent="1" source="59" target="15">
                    <mxGeometry width="50" height="50" relative="1" as="geometry">
                        <mxPoint x="510" y="670" as="sourcePoint"/>
                        <mxPoint x="380" y="610" as="targetPoint"/>
                    </mxGeometry>
                </mxCell>
                <mxCell id="63" value="own" style="rhombus;whiteSpace=wrap;html=1;" vertex="1" parent="1">
                    <mxGeometry x="580" y="780" width="80" height="80" as="geometry"/>
                </mxCell>
                <mxCell id="64" value="1" style="endArrow=none;html=1;entryX=0.5;entryY=1;entryDx=0;entryDy=0;" edge="1" parent="1" source="63" target="15">
                    <mxGeometry width="50" height="50" relative="1" as="geometry">
                        <mxPoint x="370" y="810" as="sourcePoint"/>
                        <mxPoint x="420" y="760" as="targetPoint"/>
                    </mxGeometry>
                </mxCell>
                <mxCell id="65" value="n" style="endArrow=none;html=1;exitX=0.5;exitY=0;exitDx=0;exitDy=0;entryX=0.5;entryY=1;entryDx=0;entryDy=0;" edge="1" parent="1" source="17" target="63">
                    <mxGeometry width="50" height="50" relative="1" as="geometry">
                        <mxPoint x="370" y="810" as="sourcePoint"/>
                        <mxPoint x="420" y="760" as="targetPoint"/>
                    </mxGeometry>
                </mxCell>
                <mxCell id="69" value="City" style="rounded=0;whiteSpace=wrap;html=1;" vertex="1" parent="1">
                    <mxGeometry x="-360" y="330" width="120" height="60" as="geometry"/>
                </mxCell>
                <mxCell id="79" value="retrieval and deliver by" style="rhombus;whiteSpace=wrap;html=1;" vertex="1" parent="1">
                    <mxGeometry x="170" y="490" width="80" height="80" as="geometry"/>
                </mxCell>
                <mxCell id="80" value="1" style="endArrow=none;html=1;exitX=0.5;exitY=0;exitDx=0;exitDy=0;entryX=0.5;entryY=1;entryDx=0;entryDy=0;" edge="1" parent="1" source="79" target="2">
                    <mxGeometry width="50" height="50" relative="1" as="geometry">
                        <mxPoint x="320" y="640" as="sourcePoint"/>
                        <mxPoint x="370" y="590" as="targetPoint"/>
                    </mxGeometry>
                </mxCell>
                <mxCell id="81" value="1" style="endArrow=none;html=1;exitX=0.5;exitY=0;exitDx=0;exitDy=0;entryX=0.5;entryY=1;entryDx=0;entryDy=0;" edge="1" parent="1" source="12" target="79">
                    <mxGeometry width="50" height="50" relative="1" as="geometry">
                        <mxPoint x="320" y="640" as="sourcePoint"/>
                        <mxPoint x="370" y="590" as="targetPoint"/>
                    </mxGeometry>
                </mxCell>
                <mxCell id="82" value="load" style="rhombus;whiteSpace=wrap;html=1;" vertex="1" parent="1">
                    <mxGeometry x="380" y="320" width="80" height="80" as="geometry"/>
                </mxCell>
                <mxCell id="83" value="n" style="endArrow=none;html=1;exitX=1;exitY=0.5;exitDx=0;exitDy=0;entryX=0;entryY=0.5;entryDx=0;entryDy=0;" edge="1" parent="1" source="2" target="82">
                    <mxGeometry width="50" height="50" relative="1" as="geometry">
                        <mxPoint x="490" y="430" as="sourcePoint"/>
                        <mxPoint x="380" y="360" as="targetPoint"/>
                    </mxGeometry>
                </mxCell>
                <mxCell id="84" value="1" style="endArrow=none;html=1;exitX=1;exitY=0.5;exitDx=0;exitDy=0;entryX=0;entryY=0.5;entryDx=0;entryDy=0;" edge="1" parent="1" source="82" target="21">
                    <mxGeometry width="50" height="50" relative="1" as="geometry">
                        <mxPoint x="490" y="430" as="sourcePoint"/>
                        <mxPoint x="540" y="380" as="targetPoint"/>
                    </mxGeometry>
                </mxCell>
                <mxCell id="90" value="" style="endArrow=none;html=1;exitX=1;exitY=0.5;exitDx=0;exitDy=0;entryX=0.5;entryY=0;entryDx=0;entryDy=0;" edge="1" parent="1" source="46" target="2">
                    <mxGeometry width="50" height="50" relative="1" as="geometry">
                        <mxPoint x="460" y="450" as="sourcePoint"/>
                        <mxPoint x="510" y="400" as="targetPoint"/>
                    </mxGeometry>
                </mxCell>
                <mxCell id="91" value="" style="endArrow=none;html=1;exitX=0;exitY=0.5;exitDx=0;exitDy=0;" edge="1" parent="1" source="42">
                    <mxGeometry width="50" height="50" relative="1" as="geometry">
                        <mxPoint x="460" y="450" as="sourcePoint"/>
                        <mxPoint x="210" y="330" as="targetPoint"/>
                    </mxGeometry>
                </mxCell>
                <mxCell id="92" value="" style="endArrow=none;html=1;exitX=0.5;exitY=0;exitDx=0;exitDy=0;entryX=0.019;entryY=0.678;entryDx=0;entryDy=0;entryPerimeter=0;" edge="1" parent="1" source="2" target="43">
                    <mxGeometry width="50" height="50" relative="1" as="geometry">
                        <mxPoint x="480" y="450" as="sourcePoint"/>
                        <mxPoint x="530" y="400" as="targetPoint"/>
                    </mxGeometry>
                </mxCell>
                <mxCell id="93" value="" style="endArrow=none;html=1;exitX=1;exitY=0.5;exitDx=0;exitDy=0;" edge="1" parent="1" source="47">
                    <mxGeometry width="50" height="50" relative="1" as="geometry">
                        <mxPoint x="500" y="450" as="sourcePoint"/>
                        <mxPoint x="210" y="330" as="targetPoint"/>
                    </mxGeometry>
                </mxCell>
                <mxCell id="94" value="import,export,retrieval and deliver in" style="rhombus;whiteSpace=wrap;html=1;" vertex="1" parent="1">
                    <mxGeometry x="-120" y="320" width="160" height="80" as="geometry"/>
                </mxCell>
                <mxCell id="95" value="n" style="endArrow=none;html=1;exitX=1;exitY=0.5;exitDx=0;exitDy=0;" edge="1" parent="1" source="94">
                    <mxGeometry width="50" height="50" relative="1" as="geometry">
                        <mxPoint x="280" y="410" as="sourcePoint"/>
                        <mxPoint x="150" y="360" as="targetPoint"/>
                    </mxGeometry>
                </mxCell>
                <mxCell id="96" value="n" style="endArrow=none;html=1;exitX=1;exitY=0.5;exitDx=0;exitDy=0;entryX=0;entryY=0.5;entryDx=0;entryDy=0;" edge="1" parent="1" source="69" target="94">
                    <mxGeometry width="50" height="50" relative="1" as="geometry">
                        <mxPoint x="140" y="500" as="sourcePoint"/>
                        <mxPoint x="190" y="450" as="targetPoint"/>
                    </mxGeometry>
                </mxCell>
                <mxCell id="97" value="n" style="endArrow=none;html=1;exitX=0;exitY=0;exitDx=0;exitDy=0;" edge="1" parent="1" source="12" target="98">
                    <mxGeometry width="50" height="50" relative="1" as="geometry">
                        <mxPoint x="310" y="460" as="sourcePoint"/>
                        <mxPoint x="-40" y="540" as="targetPoint"/>
                    </mxGeometry>
                </mxCell>
                <mxCell id="98" value="live in" style="rhombus;whiteSpace=wrap;html=1;" vertex="1" parent="1">
                    <mxGeometry x="-150" y="490" width="80" height="80" as="geometry"/>
                </mxCell>
                <mxCell id="99" value="1" style="endArrow=none;html=1;exitX=0;exitY=0;exitDx=0;exitDy=0;entryX=0.5;entryY=1;entryDx=0;entryDy=0;" edge="1" parent="1" source="98" target="69">
                    <mxGeometry width="50" height="50" relative="1" as="geometry">
                        <mxPoint x="310" y="460" as="sourcePoint"/>
                        <mxPoint x="360" y="410" as="targetPoint"/>
                    </mxGeometry>
                </mxCell>
                <mxCell id="100" value="" style="endArrow=none;html=1;exitX=1;exitY=0.5;exitDx=0;exitDy=0;entryX=0.5;entryY=0;entryDx=0;entryDy=0;" edge="1" parent="1" source="56" target="2">
                    <mxGeometry width="50" height="50" relative="1" as="geometry">
                        <mxPoint x="320" y="470" as="sourcePoint"/>
                        <mxPoint x="370" y="420" as="targetPoint"/>
                    </mxGeometry>
                </mxCell>
                <mxCell id="101" value="" style="endArrow=none;html=1;exitX=1;exitY=0.5;exitDx=0;exitDy=0;entryX=0;entryY=0.5;entryDx=0;entryDy=0;" edge="1" parent="1" source="15" target="55">
                    <mxGeometry width="50" height="50" relative="1" as="geometry">
                        <mxPoint x="320" y="810" as="sourcePoint"/>
                        <mxPoint x="370" y="760" as="targetPoint"/>
                    </mxGeometry>
                </mxCell>
                <mxCell id="102" value="name" style="ellipse;whiteSpace=wrap;html=1;fontStyle=4" vertex="1" parent="1">
                    <mxGeometry x="-570" y="320" width="120" height="80" as="geometry"/>
                </mxCell>
                <mxCell id="103" value="" style="endArrow=none;html=1;exitX=1;exitY=0.5;exitDx=0;exitDy=0;entryX=0;entryY=0.5;entryDx=0;entryDy=0;" edge="1" parent="1" source="102" target="69">
                    <mxGeometry width="50" height="50" relative="1" as="geometry">
                        <mxPoint x="230" y="440" as="sourcePoint"/>
                        <mxPoint x="280" y="390" as="targetPoint"/>
                    </mxGeometry>
                </mxCell>
            </root>
        </mxGraphModel>
    </diagram>
</mxfile>